<svg width="1253" height="293" viewBox="0 0 1253 293" fill="none" xmlns="http://www.w3.org/2000/svg">
<path d="M796.23 48.9401L697.63 147.73C690.03 155.94 679.13 161.1 667.04 161.1C654.95 161.1 644 155.9 636.41 147.73L523.25 34.7501C512.83 24.8201 498.62 18.5701 483.19 18.5701L483.14 0.0800781C503.6 0.0800781 522.44 8.42008 536.09 21.4401L649.75 134.91C654.01 139.54 660.3 142.6 667.04 142.6C673.78 142.6 680.02 139.57 684.28 134.93L781.64 37.3801L796.24 48.9401H796.23Z" fill="white"/>
<path d="M781.63 37.3801L792.09 26.9001C783.4 21.6301 773.29 18.5701 762.46 18.5701C747.03 18.5701 732.77 24.8101 722.34 34.7501L609.18 147.73C601.59 155.9 590.63 161.1 578.55 161.1C566.47 161.1 555.56 155.94 547.96 147.73L425.79 25.3201C443.34 10.1301 458.87 0.0800781 483.34 0.0800781L483.18 18.5701C472.34 18.5701 462.18 21.6301 453.5 26.9001L561.32 134.93C565.57 139.57 571.79 142.6 578.55 142.6C585.31 142.6 591.59 139.54 595.84 134.91L709.49 21.4401C723.15 8.42008 741.99 0.0800781 762.44 0.0800781C786.91 0.0800781 802.23 10.1301 819.78 25.3201L796.21 48.9401L781.61 37.3801H781.63Z" fill="white"/>
<path fill-rule="evenodd" clip-rule="evenodd" d="M305.59 270.64V291.89H232.34C203.62 291.89 179.83 268.64 179.83 239.38C179.83 210.12 203.1 186.6 232.36 186.32H305.6V207.69H232.35C224.39 207.69 217.46 210.56 212.16 215.26C208.16 218.7 205.03 223.12 203.15 228.15H297.18V248.95H202.72C206.59 259.34 214.19 266.53 223.66 269.34C226.39 270.18 229.31 270.64 232.35 270.64H305.6H305.59ZM419.7 257.33H361.98V292.03L340.36 291.91V186.19H432.74C452.35 186.19 468.26 202.09 468.26 221.7C468.26 236.71 458.95 249.64 445.8 254.85L471.58 291.9H444.84L419.72 257.32L419.7 257.33ZM361.98 207.8V235.9H432.73C440.45 235.9 446.72 229.52 446.72 221.79C446.72 214.06 440.46 207.8 432.73 207.8H361.98ZM592.99 291.95H540.81C516.42 291.95 496.64 272.18 496.64 247.79L496.6 186.19H518.67L518.71 247.91C518.71 260.12 528.61 270.01 540.81 270.01H592.99V291.95V291.95ZM613.54 186.19H635.61V291.95H613.54V186.19ZM691.71 214.54V291.95H669.65V186.19H691.22L776.13 263.74V186.21H798.19V291.95H776.87L691.71 214.54ZM878.79 291.95C850.02 291.95 826.18 268.66 826.18 239.34C826.18 210.02 849.49 186.46 878.81 186.19H957.4V208.24H878.79C870.98 208.24 864.18 211.06 858.98 215.67C852.47 221.26 848.32 229.51 848.21 238.73C848.21 253.08 857.51 264.96 870.26 268.75C872.94 269.58 875.8 270.02 878.79 270.02H935.33V249.27H906.73V228.97H957.4V291.96H878.79V291.95ZM985.76 247.78V186.18H1007.82V247.9C1007.82 260.11 1017.72 270 1029.92 270H1057.54C1069.75 270 1079.64 260.1 1079.64 247.9V186.18H1101.7V247.78C1101.7 272.17 1081.93 291.94 1057.53 291.94H1029.91C1005.52 291.94 985.75 272.17 985.75 247.78H985.76ZM1252.22 270.63V291.88H1178.97C1150.25 291.88 1126.46 268.63 1126.46 239.37C1126.46 210.11 1149.73 186.59 1178.99 186.31H1252.23V207.68H1178.98C1171.02 207.68 1164.09 210.55 1158.79 215.25C1154.79 218.69 1151.66 223.11 1149.78 228.14H1243.81V248.94H1149.35C1153.22 259.33 1160.82 266.52 1170.29 269.33C1173.03 270.17 1175.94 270.63 1178.98 270.63H1252.23H1252.22ZM80.09 265.04C81.63 267.47 84.34 269.08 87.42 269.08C90.5 269.08 93.21 267.47 94.75 265.04L146.31 186.27H174.55L114.41 278.25C108.58 286.93 98.67 292.69 87.42 292.69C76.17 292.69 65.79 286.66 60.08 277.57L0.25 186.21H28.49L80.09 265.03V265.04Z" fill="white"/>
</svg>
