<svg width="1429" height="447" viewBox="0 0 1429 447" fill="none" xmlns="http://www.w3.org/2000/svg">
<path d="M884.23 115.06L785.63 213.85C778.03 222.06 767.13 227.22 755.04 227.22C742.95 227.22 732 222.02 724.41 213.85L611.25 100.87C600.83 90.94 586.62 84.69 571.19 84.69L571.14 66.2C591.6 66.2 610.44 74.54 624.09 87.56L737.75 201.03C742.01 205.66 748.3 208.72 755.04 208.72C761.78 208.72 768.02 205.69 772.28 201.05L869.64 103.5L884.24 115.06H884.23Z" fill="url(#paint0_linear_137_4549)"/>
<path d="M869.63 103.5L880.09 93.02C871.4 87.75 861.29 84.69 850.46 84.69C835.03 84.69 820.77 90.93 810.34 100.87L697.18 213.85C689.59 222.02 678.63 227.22 666.55 227.22C654.47 227.22 643.56 222.06 635.96 213.85L513.79 91.44C531.34 76.25 546.87 66.2 571.34 66.2L571.18 84.69C560.34 84.69 550.18 87.75 541.5 93.02L649.32 201.05C653.57 205.69 659.79 208.72 666.55 208.72C673.31 208.72 679.59 205.66 683.84 201.03L797.49 87.56C811.15 74.54 829.99 66.2 850.44 66.2C874.91 66.2 890.23 76.25 907.78 91.44L884.21 115.06L869.61 103.5H869.63Z" fill="#70A3FF"/>
<path fill-rule="evenodd" clip-rule="evenodd" d="M393.59 336.76V358.01H320.34C291.62 358.01 267.83 334.76 267.83 305.5C267.83 276.24 291.1 252.72 320.36 252.44H393.6V273.81H320.35C312.39 273.81 305.46 276.68 300.16 281.38C296.16 284.82 293.03 289.24 291.15 294.27H385.18V315.07H290.72C294.59 325.46 302.19 332.65 311.66 335.46C314.39 336.3 317.31 336.76 320.35 336.76H393.6H393.59ZM507.7 323.45H449.98V358.15L428.36 358.03V252.31H520.74C540.35 252.31 556.26 268.21 556.26 287.82C556.26 302.83 546.95 315.76 533.8 320.97L559.58 358.02H532.84L507.72 323.44L507.7 323.45ZM449.98 273.92V302.02H520.73C528.45 302.02 534.72 295.64 534.72 287.91C534.72 280.18 528.46 273.92 520.73 273.92H449.98ZM680.99 358.07H628.81C604.42 358.07 584.64 338.3 584.64 313.91L584.6 252.31H606.67L606.71 314.03C606.71 326.24 616.61 336.13 628.81 336.13H680.99V358.07ZM701.54 252.31H723.61V358.07H701.54V252.31ZM779.71 280.66V358.07H757.65V252.31H779.22L864.13 329.86V252.33H886.19V358.07H864.87L779.71 280.66ZM966.79 358.07C938.02 358.07 914.18 334.78 914.18 305.46C914.18 276.14 937.49 252.58 966.81 252.31H1045.4V274.36H966.79C958.98 274.36 952.18 277.18 946.98 281.79C940.47 287.38 936.32 295.63 936.21 304.85C936.21 319.2 945.51 331.08 958.26 334.87C960.94 335.7 963.8 336.14 966.79 336.14H1023.33V315.39H994.73V295.09H1045.4V358.08H966.79V358.07ZM1073.76 313.9V252.3H1095.82V314.02C1095.82 326.23 1105.72 336.12 1117.92 336.12H1145.54C1157.75 336.12 1167.64 326.22 1167.64 314.02V252.3H1189.7V313.9C1189.7 338.29 1169.93 358.06 1145.53 358.06H1117.91C1093.52 358.06 1073.75 338.29 1073.75 313.9H1073.76ZM1340.22 336.75V358H1266.97C1238.25 358 1214.46 334.75 1214.46 305.49C1214.46 276.23 1237.73 252.71 1266.99 252.43H1340.23V273.8H1266.98C1259.02 273.8 1252.09 276.67 1246.79 281.37C1242.79 284.81 1239.66 289.23 1237.78 294.26H1331.81V315.06H1237.35C1241.22 325.45 1248.82 332.64 1258.29 335.45C1261.03 336.29 1263.94 336.75 1266.98 336.75H1340.23H1340.22ZM168.09 331.16C169.63 333.59 172.34 335.2 175.42 335.2C178.5 335.2 181.21 333.59 182.75 331.16L234.31 252.39H262.55L202.41 344.37C196.58 353.05 186.67 358.81 175.42 358.81C164.17 358.81 153.79 352.78 148.08 343.69L88.25 252.33H116.49L168.09 331.15V331.16Z" fill="#003D9F"/>
<defs>
<linearGradient id="paint0_linear_137_4549" x1="571.14" y1="146.71" x2="884.23" y2="146.71" gradientUnits="userSpaceOnUse">
<stop stop-color="#70A3FF"/>
<stop offset="0.07" stop-color="#568BE9"/>
<stop offset="0.2" stop-color="#3169C9"/>
<stop offset="0.31" stop-color="#1651B2"/>
<stop offset="0.42" stop-color="#0542A3"/>
<stop offset="0.49" stop-color="#003D9F"/>
<stop offset="0.94" stop-color="#70A3FF"/>
</linearGradient>
</defs>
</svg>
